<?xml version="1.0" encoding="utf-8"?>
<!-- Generator: Adobe Illustrator 16.0.0, SVG Export Plug-In . SVG Version: 6.00 Build 0)  -->
<!DOCTYPE svg PUBLIC "-//W3C//DTD SVG 1.1//EN" "http://www.w3.org/Graphics/SVG/1.1/DTD/svg11.dtd">
<svg version="1.1" id="Layer_1" xmlns="http://www.w3.org/2000/svg" xmlns:xlink="http://www.w3.org/1999/xlink" x="0px" y="0px"
	 width="2048px" height="2048px" viewBox="0 0 2048 2048" enable-background="new 0 0 2048 2048" xml:space="preserve">
<circle fill="none" stroke="currentColor" stroke-width="70" stroke-miterlimit="10" cx="1024" cy="1024" r="850.487"/>
<g>
	<path fill="none" stroke="currentColor" stroke-width="70" stroke-miterlimit="10" d="M1318.725,526.213l0.282-0.174
		c0,0-0.194-0.321-0.213-0.353c-39.141-63.375-117.173-86.332-174.193-51.118c-57.019,35.214-71.393,115.332-32.254,178.707
		c0.02,0.03,0.179,0.286,0.179,0.286l-0.166,0.101l194.143,314.354l0.167-0.101c39.327,63.582,117.061,86.096,174.054,50.898
		c56.991-35.198,71.668-114.783,32.428-178.421l-0.284,0.175L1318.725,526.213z"/>
	
		<line fill="none" stroke="currentColor" stroke-width="70" stroke-miterlimit="10" x1="1209.203" y1="810.468" x2="1415.568" y2="683.021"/>
</g>
<g>
	<path fill="none" stroke="currentColor" stroke-width="70" stroke-miterlimit="10" d="M694.41,438.746l-31.596,347.255
		c0,0-34.591,15.828-86.814,39.492V1351h200"/>
	<path fill="none" stroke="currentColor" stroke-width="70" stroke-miterlimit="10" d="M817.612,438.746l31.583,347.255
		c0,0,33.805,15.828,86.805,39.492V1351H736"/>
<circle fill="none" stroke="currentColor" stroke-width="70" stroke-miterlimit="10" cx="1024" cy="1024" r="850.487"/>
<g>
	<path fill="none" stroke="currentColor" stroke-width="70" stroke-miterlimit="10" d="M1318.725,526.213l0.282-0.174
		c0,0-0.194-0.321-0.213-0.353c-39.141-63.375-117.173-86.332-174.193-51.118c-57.019,35.214-71.393,115.332-32.254,178.707
		c0.02,0.03,0.179,0.286,0.179,0.286l-0.166,0.101l194.143,314.354l0.167-0.101c39.327,63.582,117.061,86.096,174.054,50.898
		c56.991-35.198,71.668-114.783,32.428-178.421l-0.284,0.175L1318.725,526.213z"/>
	
		<line fill="none" stroke="currentColor" stroke-width="70" stroke-miterlimit="10" x1="1209.203" y1="810.468" x2="1415.568" y2="683.021"/>
</g>
<g>
	<path fill="none" stroke="currentColor" stroke-width="70" stroke-miterlimit="10" d="M694.41,438.746l-31.596,347.255
		c0,0-34.591,15.828-86.814,39.492V1351h200"/>
	<path fill="none" stroke="currentColor" stroke-width="70" stroke-miterlimit="10" d="M817.612,438.746l31.583,347.255
		c0,0,33.805,15.828,86.805,39.492V1351H736"/>
	<line fill="nonetroke="currentColor" stroke-width="70" stroke-miterlimit="10" x1="640" y1="439" x2="871" y2="439"/>
</g>
<g>
	<rect x="640" y="1499" fill="none" stroke="currentColor" stroke-width="70" stroke-miterlimit="10" width="728" height="111"/>
	<line fill="none" stroke="currentColor" stroke-width="70" stroke-miterlimit="10" x1="1231" y1="1591" x2="1231" y2="1486"/>
	<path fill="none" stroke="currentColor" stroke-width="70" stroke-miterlimit="10" d="M1291.031,1427.275c0,0,45.61-13.48,48.011-80.879
		c0-51.223-79.216-32.352-76.815-86.271c2.401-53.918,76.815-73.761,76.815-73.761"/>
	<path fill="none" stroke="currentColor" stroke-width="70" stroke-miterlimit="10" d="M1418.92,1479.03c0,0,38.947,1.521,58.52-50.166
		c13.461-39.759-52.987-45.926-36.956-87.15c16.032-41.221,79.011-37.071,79.011-37.071"/>
</g>
</svg>
