<?xml version="1.0" encoding="utf-8"?>
<!-- Generator: Adobe Illustrator 16.0.0, SVG Export Plug-In . SVG Version: 6.00 Build 0)  -->
<!DOCTYPE svg PUBLIC "-//W3C//DTD SVG 1.1//EN" "http://www.w3.org/Graphics/SVG/1.1/DTD/svg11.dtd">
<svg version="1.1" id="Layer_1" xmlns="http://www.w3.org/2000/svg" xmlns:xlink="http://www.w3.org/1999/xlink" x="0px" y="0px"
	 width="2048px" height="2048px" viewBox="0 0 2048 2048" enable-background="new 0 0 2048 2048" xml:space="preserve">
<circle fill="none" stroke="#000000" stroke-width="70" stroke-miterlimit="10" cx="1024" cy="1024" r="850.487"/>
<path fill="none" stroke="#000000" stroke-width="70" stroke-miterlimit="10" d="M1501,661H546c-6.627,0-12,4.873-12,11.5v562
	c0,6.627,5.373,12.5,12,12.5h208v222.5L977.429,1247H1501c6.627,0,12-5.873,12-12.5v-562C1513,665.873,1507.627,661,1501,661z"/>
<path d="M932.722,935.129c-1.352,31.417-9.112,56.361-23.287,74.829c-14.174,18.471-33.227,27.704-57.157,27.704
	c-10.556,0-19.668-2.271-27.336-6.811c-7.671-4.539-13.47-11.044-17.396-19.512c-12.273,17.182-28.288,25.772-48.045,25.772
	c-17.919,0-31.786-7.549-41.603-22.642c-9.82-15.095-13.501-35.037-11.045-59.827c2.209-20.249,7.332-38.257,15.371-54.028
	c8.036-15.768,18.192-27.888,30.465-36.356c12.27-8.468,25.524-12.702,39.762-12.702c17.548,0,32.519,4.05,44.916,12.149
	l11.597,7.916l-9.388,106.399c-1.228,9.696-0.155,17.12,3.221,22.274c3.374,5.154,8.744,7.731,16.107,7.731
	c11.29,0,20.738-6.595,28.349-19.789c7.608-13.19,11.781-30.465,12.518-51.819c2.085-42.828-6.535-75.75-25.863-98.76
	c-19.329-23.01-47.954-34.515-85.875-34.515c-23.686,0-44.795,6.014-63.324,18.04c-18.532,12.029-33.135,29.117-43.812,51.267
	c-10.677,22.153-16.691,47.524-18.04,76.118c-1.964,43.443,6.748,77.038,26.14,100.784c19.389,23.748,48.414,35.621,87.071,35.621
	c10.185,0,20.862-1.137,32.03-3.406c11.166-2.271,20.801-5.309,28.901-9.111l6.995,28.348c-7.487,4.908-17.58,8.865-30.282,11.873
	c-12.701,3.006-25.495,4.51-38.381,4.51c-32.398,0-60.011-6.533-82.837-19.604s-39.854-32.338-51.083-57.803
	c-11.229-25.463-16.107-55.868-14.634-91.212c1.473-33.871,9.204-64.245,23.194-91.121s33.042-47.646,57.158-62.312
	c24.114-14.664,51.327-21.998,81.64-21.998c30.802,0,57.31,6.598,79.523,19.789c22.21,13.193,38.841,32.062,49.886,56.605
	C929.224,874.078,934.071,902.61,932.722,935.129z M747.719,954.642c-1.352,16.199,0.061,28.504,4.234,36.908
	c4.17,8.408,10.921,12.61,20.249,12.61c6.011,0,11.718-2.638,17.12-7.916c5.399-5.275,9.877-12.886,13.438-22.826l7.731-87.071
	c-4.786-1.593-9.696-2.393-14.727-2.393c-14.114,0-25.067,6.014-32.859,18.04C755.111,914.023,750.049,931.571,747.719,954.642z"/>
<path d="M1035.224,1041.553c10.431,0,18.827,3.076,25.187,9.219c6.357,6.145,9.541,14.008,9.541,23.578
	c0,9.434-3.184,17.225-9.541,23.365c-6.359,6.145-14.756,9.219-25.187,9.219c-10.29,0-18.617-3.074-24.974-9.219
	c-6.361-6.141-9.539-13.932-9.539-23.365c0-9.432,3.178-17.256,9.539-23.471C1016.606,1044.662,1024.934,1041.553,1035.224,1041.553
	z M1060.947,1007.684h-51.448l-7.288-216.295h66.025L1060.947,1007.684z"/>
<path d="M1280.416,1015.615h-41.374l-15.435,87.889h-39.227l15.434-87.889h-48.661v-36.871h55.092l10.719-60.88h-49.732v-37.299
	h56.376l15.65-89.176h39.014l-15.648,89.176h41.586l15.65-89.176h39.228l-15.648,89.176h46.946v37.299h-53.592l-10.718,60.88h48.019
	v36.871h-54.45l-15.435,87.889h-39.227L1280.416,1015.615z M1245.475,978.744h41.371l10.72-60.88h-41.588L1245.475,978.744z"/>
</svg>
